# xmcd CD database file
#
# Track frame offsets:
#	150
#	14175
#	27742
#	46470
#	62605
#	78450
#	96737
#	111442
#	128945
#	141887
#	159457
#	173405
#
# Disc length: 2532 seconds
#
# Revision: 1
# Processed by: cddbd v1.4PL0 Copyright (c) Steve Scherf et al.
# Submitted via: Feurio! 1.65 - http://www.feurio.com
#
DISCID=ae09e20c
DTITLE=Trace Adkins - More...
DYEAR=2002
DGENRE=Pop-Folk
TTITLE0=More
TTITLE1=I'm Gonna Love You Anyway
TTITLE2=She's Still There
TTITLE3=Someday
TTITLE4=Can I Want Your Love
TTITLE5=Don't lie
TTITLE6=Working Man's Wage
TTITLE7=The Night He Can't Remember
TTITLE8=I Can Dig It
TTITLE9=Everything Takes Me Back
TTITLE10=All Hat, No Cattle
TTITLE11=Every Other Friday At Five
EXTD=
EXTT0=
EXTT1=
EXTT2=
EXTT3=
EXTT4=
EXTT5=
EXTT6=
EXTT7=
EXTT8=
EXTT9=
EXTT10=
EXTT11=
PLAYORDER=
